<svg xmlns="http://www.w3.org/2000/svg" xmlns:xlink="http://www.w3.org/1999/xlink" xmlns:lucid="lucid" width="1854" height="1173"><g transform="translate(1173 -1248)" lucid:page-tab-id="0_0"><path d="M-632 1280c17.67 0 32 17.9 32 40s-14.33 40-32 40h-96c-17.67 0-32-17.9-32-40s14.33-40 32-40z" stroke="#000" stroke-opacity="0" fill="#ff741d"/><use xlink:href="#a" transform="matrix(1,0,0,1,-755,1285) translate(47.55 38.6)"/><path d="M-760 1448a8 8 0 0 1 8-8h144a8 8 0 0 1 8 8v104a8 8 0 0 1-8 8h-144a8 8 0 0 1-8-8z" stroke="#000" stroke-opacity="0" stroke-width="2" fill="#ff8839"/><use xlink:href="#b" transform="matrix(1,0,0,1,-755,1445) translate(12.624999999999993 47.8)"/><use xlink:href="#c" transform="matrix(1,0,0,1,-755,1445) translate(103.42500000000001 47.8)"/><use xlink:href="#d" transform="matrix(1,0,0,1,-755,1445) translate(43.025 69.4)"/><path d="M-680 1360.5v63.12" stroke="#333" fill="none"/><path d="M-679.52 1360.5h-.96v-.5h.96z" stroke="#333" stroke-width=".05" fill="#333"/><path d="M-680 1438.38l-4.63-14.26h9.26z" stroke="#333" fill="#333"/><path d="M-540 2028a8 8 0 0 1 8-8h144a8 8 0 0 1 8 8v104a8 8 0 0 1-8 8h-144a8 8 0 0 1-8-8z" stroke="#000" stroke-opacity="0" stroke-width="2" fill="#ff8839"/><use xlink:href="#e" transform="matrix(1,0,0,1,-535,2025) translate(3.049999999999997 37)"/><use xlink:href="#f" transform="matrix(1,0,0,1,-535,2025) translate(73 37)"/><use xlink:href="#g" transform="matrix(1,0,0,1,-535,2025) translate(98 37)"/><use xlink:href="#h" transform="matrix(1,0,0,1,-535,2025) translate(27.549999999999997 58.6)"/><use xlink:href="#i" transform="matrix(1,0,0,1,-535,2025) translate(93.45 58.6)"/><use xlink:href="#j" transform="matrix(1,0,0,1,-535,2025) translate(18.025 80.20000000000002)"/><path d="M-180 2268a8 8 0 0 1 8-8h144a8 8 0 0 1 8 8v104a8 8 0 0 1-8 8h-144a8 8 0 0 1-8-8z" stroke="#000" stroke-opacity="0" stroke-width="2" fill="#ff8839"/><use xlink:href="#k" transform="matrix(1,0,0,1,-175,2265) translate(16.574999999999996 47.8)"/><use xlink:href="#l" transform="matrix(1,0,0,1,-175,2265) translate(25.549999999999997 69.4)"/><use xlink:href="#m" transform="matrix(1,0,0,1,-175,2265) translate(59.55 69.4)"/><path d="M-939.52 1663.62h-.96v-27.68h.96zm260-75.6l-.16 1.93-.45 1.9-.75 1.8-1.03 1.68-1.28 1.5-1.5 1.26-1.66 1.02-1.8.75-1.9.45-1.94.15h-236l-1.82.15-1.76.42-1.67.7-1.54.94-1.38 1.17-1.17 1.38-.95 1.54-.7 1.67-.4 1.76-.15 1.82v2.32h-.96v-2.36l.16-1.93.45-1.9.75-1.8 1.03-1.68 1.28-1.5 1.5-1.26 1.66-1.02 1.8-.75 1.9-.45 1.94-.15h236l1.82-.15 1.76-.42 1.67-.7 1.54-.94 1.38-1.17 1.17-1.38.95-1.54.7-1.67.4-1.76.15-1.82v-27.48h.96z" stroke="#333" stroke-width=".05" fill="#333"/><path d="M-679.52 1560.5h-.96v-.5h.96z" fill="#333"/><path stroke="#333" stroke-width=".05" fill="#333"/><path d="M-940 1678.38l-4.63-14.26h9.26z" fill="#333"/><path d="M-940 1679.92l-5.3-16.28h10.6zm-3.98-15.33l3.98 12.25 3.98-12.26z" stroke="#333" stroke-width=".05" fill="#333"/><use xlink:href="#n" transform="matrix(1,0,0,1,-1048.8501000000695,1614.341478677118) translate(0.0049999999999954525 14.4)"/><use xlink:href="#o" transform="matrix(1,0,0,1,-1048.8501000000695,1614.341478677118) translate(76.905 14.4)"/><use xlink:href="#p" transform="matrix(1,0,0,1,-1048.8501000000695,1614.341478677118) translate(119.855 14.4)"/><path d="M-500 1688a8 8 0 0 1 8-8h144a8 8 0 0 1 8 8v104a8 8 0 0 1-8 8h-144a8 8 0 0 1-8-8z" stroke="#000" stroke-opacity="0" stroke-width="2" fill="#ff8839"/><use xlink:href="#q" transform="matrix(1,0,0,1,-495,1685) translate(27.574999999999996 47.8)"/><use xlink:href="#r" transform="matrix(1,0,0,1,-495,1685) translate(76.525 47.8)"/><use xlink:href="#s" transform="matrix(1,0,0,1,-495,1685) translate(47.599999999999994 69.4)"/><path d="M-686.4 1904.8a10.67 10.67 0 0 1 12.8 0l67.2 50.4a6 6 0 0 1 0 9.6l-67.2 50.4a10.67 10.67 0 0 1-12.8 0l-67.2-50.4a6 6 0 0 1 0-9.6z" stroke="#fe5900" stroke-width="4" fill="#fff"/><use xlink:href="#t" transform="matrix(1,0,0,1,-755,1905) translate(30.049999999999997 47.8)"/><use xlink:href="#u" transform="matrix(1,0,0,1,-755,1905) translate(35.5 69.4)"/><use xlink:href="#v" transform="matrix(1,0,0,1,-755,1905) translate(87.5 69.4)"/><use xlink:href="#w" transform="matrix(1,0,0,1,-755,1905) translate(104.5 69.4)"/><path d="M-679.02 2067.96l.13 1.76.42 1.7.66 1.58.9 1.48 1.13 1.3 1.32 1.14 1.48.9 1.6.66 1.68.4 1.76.14h11.13v1.95h-11.2l-2-.15-1.98-.48-1.9-.78-1.73-1.06-1.55-1.32-1.32-1.55-1.06-1.74-.78-1.9-.48-1.97-.15-2v-47.7h1.95zm120.52 11.07v1.94h-65.33v-1.94z" stroke="#008a0e" stroke-width=".05" fill="#008a0e"/><path d="M-680 2019.34l.98-.06v1.08H-681v-1.08z" fill="#008a0e"/><path stroke="#008a0e" stroke-width=".05" fill="#008a0e"/><path d="M-543.24 2080l-14.26 4.64v-9.28z" fill="#008a0e"/><path d="M-540.08 2080l-18.4 5.98v-11.96zm-16.45 3.3l10.14-3.3-10.13-3.3z" stroke="#008a0e" stroke-width=".05" fill="#008a0e"/><use xlink:href="#x" transform="matrix(1,0,0,1,-656.8312445522081,2069.2) translate(0.004999999999999005 14.4)"/><path d="M-940 1800.5v37.83a12 12 0 0 0 12 12h236a12 12 0 0 1 12 12v21.95" stroke="#333" fill="none"/><path d="M-939.52 1800.5h-.96v-.5h.96z" stroke="#333" stroke-width=".05" fill="#333"/><path d="M-680 1899.05l-4.63-14.27h9.26z" stroke="#333" fill="#333"/><path d="M-420 1800.5v37.83a12 12 0 0 1-12 12h-236a12 12 0 0 0-12 12v21.95" stroke="#333" fill="none"/><path d="M-419.52 1800.5h-.96v-.5h.96z" stroke="#333" stroke-width=".05" fill="#333"/><path d="M-680 1899.05l-4.63-14.27h9.26z" stroke="#333" fill="#333"/><path d="M-1109.03 1947.96l.14 1.76.42 1.7.66 1.58.9 1.48 1.13 1.3 1.32 1.14 1.48.9 1.6.66 1.68.4 1.76.14H-759v1.95h-339.04l-2-.15-1.97-.48-1.9-.78-1.73-1.06-1.55-1.32-1.32-1.55-1.06-1.74-.78-1.9-.48-1.97-.15-2V1741.8h1.94zm330.53-447h-319.46l-1.76.15-1.7.42-1.58.66-1.48.9-1.3 1.13-1.14 1.32-.9 1.48-.66 1.6-.4 1.68-.14 1.76v208.16h-1.95v-208.24l.15-2 .48-1.97.78-1.9 1.06-1.73 1.32-1.55 1.55-1.32 1.74-1.06 1.9-.78 1.97-.48 2-.15h319.53z" stroke="#e81313" stroke-width=".05" fill="#e81313"/><path d="M-758 1960l.08.97h-1.1v-1.94h1.1z" fill="#e81313"/><path stroke="#e81313" stroke-width=".05" fill="#e81313"/><path d="M-763.24 1500l-14.26 4.63v-9.27z" fill="#e81313"/><path d="M-760.08 1500l-18.4 5.98v-11.96zm-16.45 3.3l10.14-3.3-10.13-3.3z" stroke="#e81313" stroke-width=".05" fill="#e81313"/><use xlink:href="#y" transform="matrix(1,0,0,1,-1126.95,1720.1956808014259) translate(0.004999999999999005 14.4)"/><path d="M-1020 1688a8 8 0 0 1 8-8h144a8 8 0 0 1 8 8v104a8 8 0 0 1-8 8h-144a8 8 0 0 1-8-8z" stroke="#000" stroke-opacity="0" stroke-width="2" fill="#ff8839"/><use xlink:href="#q" transform="matrix(1,0,0,1,-1015,1685) translate(27.574999999999996 47.8)"/><use xlink:href="#r" transform="matrix(1,0,0,1,-1015,1685) translate(76.525 47.8)"/><use xlink:href="#z" transform="matrix(1,0,0,1,-1015,1685) translate(42.574999999999996 69.4)"/><path d="M-760 1688a8 8 0 0 1 8-8h144a8 8 0 0 1 8 8v104a8 8 0 0 1-8 8h-144a8 8 0 0 1-8-8z" stroke="#000" stroke-opacity="0" stroke-width="2" fill="#ff8839"/><use xlink:href="#A" transform="matrix(1,0,0,1,-755,1685) translate(4.599999999999994 26.19999999999999)"/><use xlink:href="#B" transform="matrix(1,0,0,1,-755,1685) translate(30.549999999999997 47.79999999999999)"/><use xlink:href="#C" transform="matrix(1,0,0,1,-755,1685) translate(78.5 47.79999999999999)"/><use xlink:href="#D" transform="matrix(1,0,0,1,-755,1685) translate(8.549999999999997 69.39999999999999)"/><use xlink:href="#E" transform="matrix(1,0,0,1,-755,1685) translate(70.55 69.39999999999999)"/><use xlink:href="#r" transform="matrix(1,0,0,1,-755,1685) translate(95.55 69.39999999999999)"/><use xlink:href="#F" transform="matrix(1,0,0,1,-755,1685) translate(24.125 91)"/><use xlink:href="#G" transform="matrix(1,0,0,1,-755,1685) translate(85.025 91)"/><path d="M-679.52 1663.62h-.96v-19.93h.96zm0-41.53h-.96v-61.6h.96z" stroke="#333" stroke-width=".05" fill="#333"/><path d="M-679.52 1560.5h-.96v-.5h.96z" fill="#333"/><path stroke="#333" stroke-width=".05" fill="#333"/><path d="M-680 1678.38l-4.63-14.26h9.26z" fill="#333"/><path d="M-680 1679.92l-5.3-16.28h10.6zm-3.98-15.33l3.98 12.25 3.98-12.26z" stroke="#333" stroke-width=".05" fill="#333"/><use xlink:href="#H" transform="matrix(1,0,0,1,-775.8,1622.0889236545684) translate(0.0049999999999954525 14.4)"/><use xlink:href="#I" transform="matrix(1,0,0,1,-775.8,1622.0889236545684) translate(55.805 14.4)"/><use xlink:href="#J" transform="matrix(1,0,0,1,-775.8,1622.0889236545684) translate(119.70500000000001 14.4)"/><path d="M-419.52 1663.62h-.96v-22.68h.96zm-260-75.64l.14 1.82.42 1.76.7 1.67.94 1.54 1.17 1.38 1.38 1.17 1.54.95 1.67.7 1.76.4 1.82.16h236l1.93.15 1.9.45 1.8.75 1.68 1.03 1.5 1.28 1.26 1.5 1.02 1.66.75 1.8.45 1.9.16 1.94v7.36h-.96v-7.32l-.14-1.82-.42-1.76-.7-1.67-.94-1.54-1.17-1.38-1.38-1.17-1.54-.95-1.67-.7-1.76-.4-1.82-.16h-236l-1.93-.15-1.9-.45-1.8-.75-1.68-1.03-1.5-1.28-1.26-1.5-1.02-1.66-.75-1.8-.45-1.9-.15-1.94v-27.52h.95z" stroke="#333" stroke-width=".05" fill="#333"/><path d="M-679.52 1560.5h-.96v-.5h.96z" fill="#333"/><path stroke="#333" stroke-width=".05" fill="#333"/><path d="M-420 1678.38l-4.63-14.26h9.26z" fill="#333"/><path d="M-420 1679.92l-5.3-16.28h10.6zm-3.98-15.33l3.98 12.25 3.98-12.26z" stroke="#333" stroke-width=".05" fill="#333"/><use xlink:href="#n" transform="matrix(1,0,0,1,-551.3,1619.3398658401863) translate(0.0049999999999954525 14.4)"/><use xlink:href="#o" transform="matrix(1,0,0,1,-551.3,1619.3398658401863) translate(76.905 14.4)"/><use xlink:href="#K" transform="matrix(1,0,0,1,-551.3,1619.3398658401863) translate(119.855 14.4)"/><path d="M-680 1800.5v83.78" stroke="#333" fill="none"/><path d="M-679.52 1800.5h-.96v-.5h.96z" stroke="#333" stroke-width=".05" fill="#333"/><path d="M-680 1899.05l-4.63-14.27h9.26z" stroke="#333" fill="#333"/><path d="M110 2268a8 8 0 0 1 8-8h144a8 8 0 0 1 8 8v104a8 8 0 0 1-8 8H118a8 8 0 0 1-8-8z" stroke="#000" stroke-opacity="0" stroke-width="2" fill="#ff8839"/><use xlink:href="#L" transform="matrix(1,0,0,1,114.999995191079,2265) translate(32.574999999999996 37)"/><use xlink:href="#M" transform="matrix(1,0,0,1,114.999995191079,2265) translate(97.42500000000001 37)"/><use xlink:href="#N" transform="matrix(1,0,0,1,114.999995191079,2265) translate(1.0499999999999972 58.6)"/><use xlink:href="#O" transform="matrix(1,0,0,1,114.999995191079,2265) translate(66.95 58.6)"/><use xlink:href="#P" transform="matrix(1,0,0,1,114.999995191079,2265) translate(91.95 58.6)"/><use xlink:href="#Q" transform="matrix(1,0,0,1,114.999995191079,2265) translate(27.049999999999997 80.20000000000002)"/><path d="M-246.4 2024.8a10.67 10.67 0 0 1 12.8 0l67.2 50.4a6 6 0 0 1 0 9.6l-67.2 50.4a10.67 10.67 0 0 1-12.8 0l-67.2-50.4a6 6 0 0 1 0-9.6z" stroke="#fe5900" stroke-width="4" fill="#fff"/><use xlink:href="#t" transform="matrix(1,0,0,1,-315,2025) translate(30.049999999999997 47.8)"/><use xlink:href="#u" transform="matrix(1,0,0,1,-315,2025) translate(35.5 69.4)"/><use xlink:href="#v" transform="matrix(1,0,0,1,-315,2025) translate(87.5 69.4)"/><use xlink:href="#w" transform="matrix(1,0,0,1,-315,2025) translate(104.5 69.4)"/><path d="M-379.5 2080h45.1" stroke="#333" fill="none"/><path d="M-379.5 2080.47h-.5v-.94h.5z" stroke="#333" stroke-width=".05" fill="#333"/><path d="M-319.63 2080l-14.26 4.64v-9.28z" stroke="#333" fill="#333"/><path d="M-239.03 2019.66h-1.94v-253.3h1.94zm-10.94-520.48l1.98.48 1.9.78 1.73 1.06 1.55 1.32 1.32 1.55 1.06 1.74.78 1.9.48 1.97.16 2v232.8h-1.95v-232.73l-.14-1.76-.42-1.7-.66-1.58-.9-1.48-1.13-1.3-1.32-1.14-1.48-.9-1.6-.66-1.68-.4-1.76-.14H-581.5v-1.95h329.54z" stroke="#008a0e" stroke-width=".05" fill="#008a0e"/><path d="M-239.03 2020.72l-.97-.06-.97.06v-1.08h1.94z" fill="#008a0e"/><path stroke="#008a0e" stroke-width=".05" fill="#008a0e"/><path d="M-582.5 1504.63l-14.26-4.63 14.26-4.63z" fill="#008a0e"/><path d="M-581.52 1505.98l-18.4-5.98 18.4-5.98zm-12.1-5.98l10.15 3.3v-6.6z" stroke="#008a0e" stroke-width=".05" fill="#008a0e"/><use xlink:href="#x" transform="matrix(1,0,0,1,-256.5,1744.7690690239372) translate(0.004999999999999005 14.4)"/><path d="M400 2268a8 8 0 0 1 8-8h144a8 8 0 0 1 8 8v104a8 8 0 0 1-8 8H408a8 8 0 0 1-8-8z" stroke="#000" stroke-opacity="0" stroke-width="2" fill="#ff8839"/><use xlink:href="#e" transform="matrix(1,0,0,1,404.999990382158,2265) translate(3.049999999999997 37)"/><use xlink:href="#f" transform="matrix(1,0,0,1,404.999990382158,2265) translate(73 37)"/><use xlink:href="#R" transform="matrix(1,0,0,1,404.999990382158,2265) translate(98 37)"/><use xlink:href="#S" transform="matrix(1,0,0,1,404.999990382158,2265) translate(18.025 58.6)"/><use xlink:href="#T" transform="matrix(1,0,0,1,404.999990382158,2265) translate(36.05 80.20000000000002)"/><path d="M-6.4 2024.8a10.67 10.67 0 0 1 12.8 0l67.2 50.4a6 6 0 0 1 0 9.6l-67.2 50.4a10.67 10.67 0 0 1-12.8 0l-67.2-50.4a6 6 0 0 1 0-9.6z" stroke="#fe5900" stroke-width="4" fill="#fff"/><use xlink:href="#t" transform="matrix(1,0,0,1,-75.00000320594734,2025) translate(30.049999999999997 47.8)"/><use xlink:href="#u" transform="matrix(1,0,0,1,-75.00000320594734,2025) translate(36 69.4)"/><use xlink:href="#U" transform="matrix(1,0,0,1,-75.00000320594734,2025) translate(88 69.4)"/><use xlink:href="#w" transform="matrix(1,0,0,1,-75.00000320594734,2025) translate(104 69.4)"/><path d="M-136.95 2080.97H-161v-1.94h24.05zm40.44 0h-6.55v-1.94h6.54z" stroke="#e81313" stroke-width=".05" fill="#e81313"/><path d="M-160.97 2080.97h-1.1l.08-.97-.08-.97h1.1z" fill="#e81313"/><path stroke="#e81313" stroke-width=".05" fill="#e81313"/><path d="M-81.25 2080l-14.26 4.64v-9.28z" fill="#e81313"/><path d="M-78.1 2080l-18.4 5.98v-11.96zm-16.44 3.3l10.14-3.3-10.14-3.3z" stroke="#e81313" stroke-width=".05" fill="#e81313"/><use xlink:href="#y" transform="matrix(1,0,0,1,-136.95000160297366,2069.2) translate(0.004999999999999005 14.4)"/><path d="M-80 1808a8 8 0 0 1 8-8H72a8 8 0 0 1 8 8v104a8 8 0 0 1-8 8H-72a8 8 0 0 1-8-8z" stroke="#000" stroke-opacity="0" stroke-width="2" fill="#ff8839"/><use xlink:href="#V" transform="matrix(1,0,0,1,-75.00000320594735,1805) translate(3.6499999999999915 58.6)"/><use xlink:href="#W" transform="matrix(1,0,0,1,-75.00000320594735,1805) translate(107.45 58.6)"/><path d="M.97 2019.66H-.96v-38.53H.96zm0-60.13H-.96v-21.03H.96z" stroke="#008a0e" stroke-width=".05" fill="#008a0e"/><path d="M.97 2020.72l-.97-.06-.97.06v-1.08H.96z" fill="#008a0e"/><path stroke="#008a0e" stroke-width=".05" fill="#008a0e"/><path d="M4.63 1937.5h-9.27L0 1923.24z" fill="#008a0e"/><path d="M5.98 1938.48H-5.98l5.98-18.4zm-9.27-1.95h6.6L0 1926.4z" stroke="#008a0e" stroke-width=".05" fill="#008a0e"/><use xlink:href="#x" transform="matrix(1,0,0,1,-16.500003205947337,1959.5312445522081) translate(0.004999999999999005 14.4)"/><path d="M103.05 2080.97H79v-1.94h24.05zm40.44 0h-6.55v-1.94h6.54z" stroke="#e81313" stroke-width=".05" fill="#e81313"/><path d="M79.03 2080.97h-1.1l.08-.97-.08-.97h1.1z" fill="#e81313"/><path stroke="#e81313" stroke-width=".05" fill="#e81313"/><path d="M158.75 2080l-14.26 4.64v-9.28z" fill="#e81313"/><path d="M161.9 2080l-18.4 5.98v-11.96zm-16.44 3.3l10.14-3.3-10.14-3.3z" stroke="#e81313" stroke-width=".05" fill="#e81313"/><g><use xlink:href="#y" transform="matrix(1,0,0,1,103.04999519107899,2069.2) translate(0.004999999999999005 14.4)"/></g><path d="M80.5 1860H228a12 12 0 0 1 12 12v132.28" stroke="#333" fill="none"/><path d="M80.5 1860.47H80v-.94h.5z" stroke="#333" stroke-width=".05" fill="#333"/><path d="M240 2019.05l-4.63-14.27h9.26z" stroke="#333" fill="#333"/><path d="M233.6 2024.8a10.67 10.67 0 0 1 12.8 0l67.2 50.4a6 6 0 0 1 0 9.6l-67.2 50.4a10.67 10.67 0 0 1-12.8 0l-67.2-50.4a6 6 0 0 1 0-9.6z" stroke="#fe5900" stroke-width="4" fill="#fff"/><g><use xlink:href="#X" transform="matrix(1,0,0,1,164.99999358810533,2025) translate(47.525 37)"/><use xlink:href="#Y" transform="matrix(1,0,0,1,164.99999358810533,2025) translate(7.075000000000003 58.6)"/><use xlink:href="#Z" transform="matrix(1,0,0,1,164.99999358810533,2025) translate(119.97500000000001 58.6)"/><use xlink:href="#aa" transform="matrix(1,0,0,1,164.99999358810533,2025) translate(29.525 80.20000000000002)"/><use xlink:href="#w" transform="matrix(1,0,0,1,164.99999358810533,2025) translate(110.475 80.20000000000002)"/></g><path d="M-180.5 2320H-228a12 12 0 0 1-12-12v-152.28" stroke="#333" fill="none"/><path d="M-180 2320.47h-.5v-.94h.5z" stroke="#333" stroke-width=".05" fill="#333"/><path d="M-240 2140.95l4.63 14.27h-9.26z" stroke="#333" fill="#333"/><path d="M109.5 2320H-3.62" stroke="#333" fill="none"/><path d="M110 2320.47h-.5v-.94h.5z" stroke="#333" stroke-width=".05" fill="#333"/><path d="M-18.38 2320l14.26-4.64v9.28z" stroke="#333" fill="#333"/><path d="M473.6 2024.8a10.67 10.67 0 0 1 12.8 0l67.2 50.4a6 6 0 0 1 0 9.6l-67.2 50.4a10.67 10.67 0 0 1-12.8 0l-67.2-50.4a6 6 0 0 1 0-9.6z" stroke="#fe5900" stroke-width="4" fill="#fff"/><g><use xlink:href="#ab" transform="matrix(1,0,0,1,404.999990382158,2025) translate(39.5 37)"/><use xlink:href="#ac" transform="matrix(1,0,0,1,404.999990382158,2025) translate(90.5 37)"/><use xlink:href="#ad" transform="matrix(1,0,0,1,404.999990382158,2025) translate(44.55 58.6)"/><use xlink:href="#ae" transform="matrix(1,0,0,1,404.999990382158,2025) translate(39.55 80.20000000000002)"/><use xlink:href="#af" transform="matrix(1,0,0,1,404.999990382158,2025) translate(100.44999999999999 80.20000000000002)"/></g><path d="M399.5 2320H286.38" stroke="#333" fill="none"/><path d="M400 2320.47h-.5v-.94h.5z" stroke="#333" stroke-width=".05" fill="#333"/><path d="M271.62 2320l14.26-4.64v9.28z" stroke="#333" fill="#333"/><path d="M343.5 2080.97H319v-1.94h24.5zm40 0h-7v-1.94h7z" stroke="#008a0e" stroke-width=".05" fill="#008a0e"/><path d="M319.03 2080.97h-1.1l.08-.97-.08-.97h1.1z" fill="#008a0e"/><path stroke="#008a0e" stroke-width=".05" fill="#008a0e"/><path d="M398.75 2080l-14.26 4.64v-9.28z" fill="#008a0e"/><path d="M401.9 2080l-18.4 5.98v-11.96zm-16.44 3.3l10.14-3.3-10.14-3.3z" stroke="#008a0e" stroke-width=".05" fill="#008a0e"/><g><use xlink:href="#x" transform="matrix(1,0,0,1,343.4999919851317,2069.2) translate(0.004999999999999005 14.4)"/></g><path d="M15.87 2205.95H-221.5V2204H15.87zm225.1-12.94l-.15 2-.48 1.98-.78 1.88-1.06 1.74-1.32 1.55-1.55 1.32-1.74 1.07-1.9.77-1.97.5-2 .15H49.78V2204h178.2l1.75-.14 1.7-.4 1.58-.67 1.48-.9 1.3-1.14 1.14-1.3.9-1.5.66-1.58.4-1.68.15-1.77v-52.6h1.94z" stroke="#e81313" stroke-width=".05" fill="#e81313"/><path d="M240 2139.34l.97-.07v1.1h-1.94v-1.1z" fill="#e81313"/><path stroke="#e81313" stroke-width=".05" fill="#e81313"/><path d="M-222.5 2209.6l-14.26-4.63 14.26-4.63z" fill="#e81313"/><path d="M-221.52 2210.95l-18.4-5.98 18.4-5.98zm-12.1-5.98l10.15 3.3v-6.6z" stroke="#e81313" stroke-width=".05" fill="#e81313"/><g><use xlink:href="#y" transform="matrix(1,0,0,1,15.867021010898199,2194.1715093292746) translate(0.004999999999999005 14.4)"/></g><path d="M634.5 2308.04l-.16 2-.47 1.97-.78 1.9-1.08 1.73-1.32 1.55-1.55 1.32-1.73 1.06-1.88.78-1.98.48-2 .15H578.5v-1.94h43l1.75-.14 1.68-.42 1.6-.66 1.47-.9 1.32-1.13 1.12-1.32.9-1.48.67-1.6.4-1.68.15-1.76v-98.16h1.95zm-10.94-228.86l1.98.48 1.88.78 1.73 1.06 1.55 1.32 1.32 1.55 1.07 1.74.77 1.9.47 1.97.16 2v96.23h-1.95v-96.16l-.14-1.76-.4-1.7-.65-1.58-.9-1.48-1.13-1.3-1.32-1.14-1.47-.9-1.6-.66-1.68-.4-1.76-.14H559v-1.95h62.56z" stroke="#008a0e" stroke-width=".05" fill="#008a0e"/><path d="M559.03 2080.97h-1.1l.08-.97-.08-.97h1.1z" fill="#008a0e"/><path stroke="#008a0e" stroke-width=".05" fill="#008a0e"/><path d="M577.5 2324.64l-14.26-4.64 14.26-4.64z" fill="#008a0e"/><path d="M578.48 2325.98l-18.4-5.98 18.4-5.98zm-12.1-5.98l10.15 3.3v-6.6z" stroke="#008a0e" stroke-width=".05" fill="#008a0e"/><g><use xlink:href="#x" transform="matrix(1,0,0,1,617.0256262179746,2188.204319198574) translate(0.004999999999999005 14.4)"/></g><path d="M375.87 2205.95H258.5V2204h117.37zm105.1-12.94l-.15 2-.48 1.98-.78 1.88-1.06 1.74-1.32 1.55-1.55 1.32-1.74 1.07-1.9.77-1.97.5-2 .15h-58.26V2204h58.2l1.75-.14 1.7-.4 1.58-.67 1.48-.9 1.3-1.14 1.14-1.3.9-1.5.66-1.58.4-1.68.14-1.77v-52.6h1.96z" stroke="#e81313" stroke-width=".05" fill="#e81313"/><path d="M480 2139.34l.98-.07v1.1h-1.96v-1.1z" fill="#e81313"/><path stroke="#e81313" stroke-width=".05" fill="#e81313"/><path d="M257.5 2209.6l-14.26-4.63 14.26-4.63z" fill="#e81313"/><path d="M258.48 2210.95l-18.4-5.98 18.4-5.98zm-12.1-5.98l10.15 3.3v-6.6z" stroke="#e81313" stroke-width=".05" fill="#e81313"/><g><use xlink:href="#y" transform="matrix(1,0,0,1,375.8670162019772,2194.1715093292746) translate(0.004999999999999005 14.4)"/></g><defs><path fill="#fff" d="M14 0l48-248h34L48 0H14" id="ag"/><path fill="#fff" d="M173 0L80-213 41 0H11l48-248h37l94 214 40-214h30L212 0h-39" id="ah"/><path fill="#fff" d="M125-24c46 0 70-25 89-51l25 16C214-24 183 4 123 4 8 4-5-146 60-208c32-50 158-61 191-5 5 7 9 14 11 22l-32 10c-9-28-33-43-69-43-74 0-108 51-108 125 0 46 24 75 72 75" id="ai"/><path fill="#fff" d="M20-101c0-91 52-143 145-150 126-9 127 168 53 223-23 17-55 32-93 32C57 4 20-33 20-101zm216-33c5-57-18-91-73-90-77 1-110 51-110 125 0 49 23 75 73 75 72-1 104-45 110-110" id="aj"/><g id="a"><use transform="matrix(0.05,0,0,0.05,0,0)" xlink:href="#ag"/><use transform="matrix(0.05,0,0,0.05,5,0)" xlink:href="#ah"/><use transform="matrix(0.05,0,0,0.05,17.950000000000003,0)" xlink:href="#ag"/><use transform="matrix(0.05,0,0,0.05,22.950000000000003,0)" xlink:href="#ai"/><use transform="matrix(0.05,0,0,0.05,35.900000000000006,0)" xlink:href="#ag"/><use transform="matrix(0.05,0,0,0.05,40.900000000000006,0)" xlink:href="#aj"/></g><path fill="#fff" d="M212-179c-10-28-35-45-73-45-59 0-87 40-87 99 0 60 29 101 89 101 43 0 62-24 78-52l27 14C228-24 195 4 139 4 59 4 22-46 18-125c-6-104 99-153 187-111 19 9 31 26 39 46" id="ak"/><path fill="#fff" d="M141-36C126-15 110 5 73 4 37 3 15-17 15-53c-1-64 63-63 125-63 3-35-9-54-41-54-24 1-41 7-42 31l-33-3c5-37 33-52 76-52 45 0 72 20 72 64v82c-1 20 7 32 28 27v20c-31 9-61-2-59-35zM48-53c0 20 12 33 32 33 41-3 63-29 60-74-43 2-92-5-92 41" id="al"/><path fill="#fff" d="M24 0v-261h32V0H24" id="am"/><path fill="#fff" d="M24-231v-30h32v30H24zM24 0v-190h32V0H24" id="an"/><path fill="#fff" d="M115-194c53 0 69 39 70 98 0 66-23 100-70 100C84 3 66-7 56-30L54 0H23l1-261h32v101c10-23 28-34 59-34zm-8 174c40 0 45-34 45-75 0-40-5-75-45-74-42 0-51 32-51 76 0 43 10 73 51 73" id="ao"/><path fill="#fff" d="M114-163C36-179 61-72 57 0H25l-1-190h30c1 12-1 29 2 39 6-27 23-49 58-41v29" id="ap"/><path fill="#fff" d="M96-169c-40 0-48 33-48 73s9 75 48 75c24 0 41-14 43-38l32 2c-6 37-31 61-74 61-59 0-76-41-82-99-10-93 101-131 147-64 4 7 5 14 7 22l-32 3c-4-21-16-35-41-35zm3 187c19-1 33 8 33 26 0 31-30 33-64 32V58c18 2 39 4 41-13 1-15-18-13-34-13L87 0h19" id="aq"/><path fill="#fff" d="M141-36C126-15 110 5 73 4 37 3 15-17 15-53c-1-64 63-63 125-63 3-35-9-54-41-54-24 1-41 7-42 31l-33-3c5-37 33-52 76-52 45 0 72 20 72 64v82c-1 20 7 32 28 27v20c-31 9-61-2-59-35zM48-53c0 20 12 33 32 33 41-3 63-29 60-74-43 2-92-5-92 41zm117-205c-3 23-9 48-36 47-26-1-65-44-74 0H39c4-23 8-48 36-47s64 44 74 0h16" id="ar"/><path fill="#fff" d="M100-194c62-1 85 37 85 99 1 63-27 99-86 99S16-35 15-95c0-66 28-99 85-99zM99-20c44 1 53-31 53-75 0-43-8-75-51-75s-53 32-53 75 10 74 51 75" id="as"/><g id="b"><use transform="matrix(0.05,0,0,0.05,0,0)" xlink:href="#ak"/><use transform="matrix(0.05,0,0,0.05,12.950000000000001,0)" xlink:href="#al"/><use transform="matrix(0.05,0,0,0.05,22.950000000000003,0)" xlink:href="#am"/><use transform="matrix(0.05,0,0,0.05,26.900000000000002,0)" xlink:href="#an"/><use transform="matrix(0.05,0,0,0.05,30.85,0)" xlink:href="#ao"/><use transform="matrix(0.05,0,0,0.05,40.85,0)" xlink:href="#ap"/><use transform="matrix(0.05,0,0,0.05,46.800000000000004,0)" xlink:href="#al"/><use transform="matrix(0.05,0,0,0.05,56.800000000000004,0)" xlink:href="#aq"/><use transform="matrix(0.05,0,0,0.05,65.80000000000001,0)" xlink:href="#ar"/><use transform="matrix(0.05,0,0,0.05,75.80000000000001,0)" xlink:href="#as"/></g><path fill="#fff" d="M96-169c-40 0-48 33-48 73s9 75 48 75c24 0 41-14 43-38l32 2c-6 37-31 61-74 61-59 0-76-41-82-99-10-93 101-131 147-64 4 7 5 14 7 22l-32 3c-4-21-16-35-41-35" id="at"/><path fill="#fff" d="M210-169c-67 3-38 105-44 169h-31v-121c0-29-5-50-35-48C34-165 62-65 56 0H25l-1-190h30c1 10-1 24 2 32 10-44 99-50 107 0 11-21 27-35 58-36 85-2 47 119 55 194h-31v-121c0-29-5-49-35-48" id="au"/><g id="c"><use transform="matrix(0.05,0,0,0.05,0,0)" xlink:href="#at"/><use transform="matrix(0.05,0,0,0.05,9,0)" xlink:href="#as"/><use transform="matrix(0.05,0,0,0.05,19,0)" xlink:href="#au"/></g><path fill="#fff" d="M29-66c0 49 71 55 82 11 13-52 22-111 33-165H93l5-28h85L149-74C151 11 7 37-1-60" id="av"/><path fill="#fff" d="M30-147c31-64 166-65 159 27C183-49 158 1 86 4 9 8 1-88 30-147zM88-20c53 0 68-48 68-100 0-31-11-51-44-50-52 1-68 46-68 97 0 32 13 53 44 53" id="aw"/><path fill="#fff" d="M198-190L69 30C53 58 25 83-20 72c4-11-1-27 19-22 33-1 43-29 59-52L20-190h32L79-34l84-156h35" id="ax"/><path fill="#fff" d="M55-144c13 50 104 24 104 88C159 21 15 23 1-39l26-10c6 40 102 42 102-4-13-50-104-23-104-87 0-71 143-71 148-8l-29 4c-5-35-85-37-89 0" id="ay"/><path fill="#fff" d="M51-54c-9 22 5 41 31 30L79-1C43 14 10-4 19-52l22-115H19l5-23h22l19-43h21l-9 43h35l-4 23H73" id="az"/><path fill="#fff" d="M50-231l6-30h32l-6 30H50zM6 0l37-190h31L37 0H6" id="aA"/><path fill="#fff" d="M44-68c0 29 11 47 38 47 30 0 42-19 51-41l28 9C148-21 126 4 82 4 31 4 10-29 12-85c3-77 74-140 146-93 12 8 15 23 18 40l-31 5c-1-22-13-36-36-36-52 0-65 49-65 101" id="aB"/><path fill="#fff" d="M127 0L80-88 50-66 37 0H6l51-261h31L57-100l99-90h39l-93 82L161 0h-34" id="aC"/><g id="d"><use transform="matrix(0.05,0,0,0.05,0,0)" xlink:href="#av"/><use transform="matrix(0.05,0,0,0.05,9,0)" xlink:href="#aw"/><use transform="matrix(0.05,0,0,0.05,19,0)" xlink:href="#ax"/><use transform="matrix(0.05,0,0,0.05,28,0)" xlink:href="#ay"/><use transform="matrix(0.05,0,0,0.05,37,0)" xlink:href="#az"/><use transform="matrix(0.05,0,0,0.05,42,0)" xlink:href="#aA"/><use transform="matrix(0.05,0,0,0.05,45.95,0)" xlink:href="#aB"/><use transform="matrix(0.05,0,0,0.05,54.95,0)" xlink:href="#aC"/></g><path fill="#fff" d="M30 0v-248h187v28H63v79h144v27H63v87h162V0H30" id="aD"/><path fill="#fff" d="M135-143c-3-34-86-38-87 0 15 53 115 12 119 90S17 21 10-45l28-5c4 36 97 45 98 0-10-56-113-15-118-90-4-57 82-63 122-42 12 7 21 19 24 35" id="aE"/><path fill="#fff" d="M100-194c63 0 86 42 84 106H49c0 40 14 67 53 68 26 1 43-12 49-29l28 8c-11 28-37 45-77 45C44 4 14-33 15-96c1-61 26-98 85-98zm52 81c6-60-76-77-97-28-3 7-6 17-6 28h103" id="aF"/><path fill="#fff" d="M108 0H70L1-190h34L89-25l56-165h34" id="aG"/><g id="e"><use transform="matrix(0.05,0,0,0.05,0,0)" xlink:href="#aD"/><use transform="matrix(0.05,0,0,0.05,12,0)" xlink:href="#aE"/><use transform="matrix(0.05,0,0,0.05,21,0)" xlink:href="#at"/><use transform="matrix(0.05,0,0,0.05,30,0)" xlink:href="#ap"/><use transform="matrix(0.05,0,0,0.05,35.95,0)" xlink:href="#aF"/><use transform="matrix(0.05,0,0,0.05,45.95,0)" xlink:href="#aG"/><use transform="matrix(0.05,0,0,0.05,54.95,0)" xlink:href="#aF"/></g><path fill="#fff" d="M117-194c89-4 53 116 60 194h-32v-121c0-31-8-49-39-48C34-167 62-67 57 0H25l-1-190h30c1 10-1 24 2 32 11-22 29-35 61-36" id="aH"/><g id="f"><use transform="matrix(0.05,0,0,0.05,0,0)" xlink:href="#aH"/><use transform="matrix(0.05,0,0,0.05,10,0)" xlink:href="#as"/></g><path fill="#fff" d="M140-251c81 0 123 46 123 126C263-46 219 4 140 4 59 4 17-45 17-125s42-126 123-126zm0 227c63 0 89-41 89-101s-29-99-89-99c-61 0-89 39-89 99S79-25 140-24" id="aI"/><path fill="#fff" d="M30 0v-248h33v221h125V0H30" id="aJ"/><path fill="#fff" d="M30-248c118-7 216 8 213 122C240-48 200 0 122 0H30v-248zM63-27c89 8 146-16 146-99s-60-101-146-95v194" id="aK"/><g id="g"><use transform="matrix(0.05,0,0,0.05,0,0)" xlink:href="#aI"/><use transform="matrix(0.05,0,0,0.05,14,0)" xlink:href="#aJ"/><use transform="matrix(0.05,0,0,0.05,24,0)" xlink:href="#aD"/><use transform="matrix(0.05,0,0,0.05,36,0)" xlink:href="#aK"/></g><path fill="#fff" d="M101-234c-31-9-42 10-38 44h38v23H63V0H32v-167H5v-23h27c-7-52 17-82 69-68v24" id="aL"/><path fill="#fff" d="M59-47c-2 24 18 29 38 22v24C64 9 27 4 27-40v-127H5v-23h24l9-43h21v43h35v23H59v120" id="aM"/><g id="h"><use transform="matrix(0.05,0,0,0.05,0,0)" xlink:href="#aL"/><use transform="matrix(0.05,0,0,0.05,5,0)" xlink:href="#as"/><use transform="matrix(0.05,0,0,0.05,15,0)" xlink:href="#ap"/><use transform="matrix(0.05,0,0,0.05,20.95,0)" xlink:href="#au"/><use transform="matrix(0.05,0,0,0.05,35.9,0)" xlink:href="#al"/><use transform="matrix(0.05,0,0,0.05,45.9,0)" xlink:href="#aM"/><use transform="matrix(0.05,0,0,0.05,50.9,0)" xlink:href="#as"/></g><path fill="#fff" d="M85-194c31 0 48 13 60 33l-1-100h32l1 261h-30c-2-10 0-23-3-31C134-8 116 4 85 4 32 4 16-35 15-94c0-66 23-100 70-100zm9 24c-40 0-46 34-46 75 0 40 6 74 45 74 42 0 51-32 51-76 0-42-9-74-50-73" id="aN"/><g id="i"><use transform="matrix(0.05,0,0,0.05,0,0)" xlink:href="#aN"/><use transform="matrix(0.05,0,0,0.05,10,0)" xlink:href="#al"/><use transform="matrix(0.05,0,0,0.05,20,0)" xlink:href="#aE"/></g><g id="j"><use transform="matrix(0.05,0,0,0.05,0,0)" xlink:href="#at"/><use transform="matrix(0.05,0,0,0.05,9,0)" xlink:href="#as"/><use transform="matrix(0.05,0,0,0.05,19,0)" xlink:href="#as"/><use transform="matrix(0.05,0,0,0.05,29,0)" xlink:href="#ap"/><use transform="matrix(0.05,0,0,0.05,34.95,0)" xlink:href="#aH"/><use transform="matrix(0.05,0,0,0.05,44.95,0)" xlink:href="#aN"/><use transform="matrix(0.05,0,0,0.05,54.95,0)" xlink:href="#aF"/><use transform="matrix(0.05,0,0,0.05,64.95,0)" xlink:href="#aH"/><use transform="matrix(0.05,0,0,0.05,74.95,0)" xlink:href="#al"/><use transform="matrix(0.05,0,0,0.05,84.95,0)" xlink:href="#aN"/><use transform="matrix(0.05,0,0,0.05,94.95,0)" xlink:href="#al"/><use transform="matrix(0.05,0,0,0.05,104.95,0)" xlink:href="#aE"/></g><path fill="#fff" d="M240 0l2-218c-23 76-54 145-80 218h-23L58-218 59 0H30v-248h44l77 211c21-75 51-140 76-211h43V0h-30" id="aO"/><g id="k"><use transform="matrix(0.05,0,0,0.05,0,0)" xlink:href="#aO"/><use transform="matrix(0.05,0,0,0.05,14.950000000000001,0)" xlink:href="#as"/><use transform="matrix(0.05,0,0,0.05,24.950000000000003,0)" xlink:href="#aG"/><use transform="matrix(0.05,0,0,0.05,33.95,0)" xlink:href="#an"/><use transform="matrix(0.05,0,0,0.05,37.900000000000006,0)" xlink:href="#au"/><use transform="matrix(0.05,0,0,0.05,52.85,0)" xlink:href="#aF"/><use transform="matrix(0.05,0,0,0.05,62.85,0)" xlink:href="#aH"/><use transform="matrix(0.05,0,0,0.05,72.85000000000001,0)" xlink:href="#aM"/><use transform="matrix(0.05,0,0,0.05,77.85000000000001,0)" xlink:href="#al"/><use transform="matrix(0.05,0,0,0.05,87.85000000000001,0)" xlink:href="#aq"/><use transform="matrix(0.05,0,0,0.05,96.85000000000001,0)" xlink:href="#ar"/><use transform="matrix(0.05,0,0,0.05,106.85000000000001,0)" xlink:href="#as"/></g><g id="l"><use transform="matrix(0.05,0,0,0.05,0,0)" xlink:href="#aN"/><use transform="matrix(0.05,0,0,0.05,10,0)" xlink:href="#as"/><use transform="matrix(0.05,0,0,0.05,20,0)" xlink:href="#aE"/></g><g id="m"><use transform="matrix(0.05,0,0,0.05,0,0)" xlink:href="#au"/><use transform="matrix(0.05,0,0,0.05,14.950000000000001,0)" xlink:href="#as"/><use transform="matrix(0.05,0,0,0.05,24.950000000000003,0)" xlink:href="#aM"/><use transform="matrix(0.05,0,0,0.05,29.950000000000003,0)" xlink:href="#as"/><use transform="matrix(0.05,0,0,0.05,39.95,0)" xlink:href="#ap"/><use transform="matrix(0.05,0,0,0.05,45.900000000000006,0)" xlink:href="#aF"/><use transform="matrix(0.05,0,0,0.05,55.900000000000006,0)" xlink:href="#aE"/></g><path fill="#666" d="M51-77c-1 38 59 57 67 15l29-145H98l7-41h101L172-74C175 7 45 32 13-37c-4-9-7-19-9-30" id="aP"/><path fill="#666" d="M124-194c51 0 84 22 84 74C207-44 167 4 94 4 43 4 11-23 11-74c0-74 41-120 113-120zM99-30c46 0 58-42 58-86 0-27-11-44-37-44-44 0-55 40-57 84-1 27 10 45 36 46" id="aQ"/><path fill="#666" d="M100 10C77 47 50 87-15 72l7-35c37 9 51-18 65-41L20-190h51L89-44l73-146h53" id="aR"/><path fill="#666" d="M144-137c-1-29-70-35-71-2 16 41 103 10 103 80C176 9 79 16 32-9 18-17 9-31 4-48l44-6c3 32 80 36 82 1-15-42-103-11-103-82 0-77 157-79 161-8" id="aS"/><path fill="#666" d="M72-63c-8 23 5 39 32 30L98-1C54 14 12-6 23-64l18-93H15l7-33h28l24-45h31l-8 45h35l-6 33H90" id="aT"/><path fill="#666" d="M50-224l7-37h49l-7 37H50zM6 0l37-190h49L55 0H6" id="aU"/><path fill="#666" d="M67-101c-8 29-7 73 27 71 23-2 32-16 39-37l48 9C170-19 141 4 91 4 36 4 7-28 12-86c6-75 61-124 140-103 26 7 40 29 43 59l-50 4c-1-20-9-34-29-34-35 0-41 29-49 59" id="aV"/><path fill="#666" d="M128 0L95-87 70-74 55 0H6l51-261h49L77-111l82-79h56l-83 74L180 0h-52" id="aW"/><g id="n"><use transform="matrix(0.05,0,0,0.05,0,0)" xlink:href="#aP"/><use transform="matrix(0.05,0,0,0.05,10,0)" xlink:href="#aQ"/><use transform="matrix(0.05,0,0,0.05,20.950000000000003,0)" xlink:href="#aR"/><use transform="matrix(0.05,0,0,0.05,30.950000000000003,0)" xlink:href="#aS"/><use transform="matrix(0.05,0,0,0.05,40.95,0)" xlink:href="#aT"/><use transform="matrix(0.05,0,0,0.05,46.900000000000006,0)" xlink:href="#aU"/><use transform="matrix(0.05,0,0,0.05,51.900000000000006,0)" xlink:href="#aV"/><use transform="matrix(0.05,0,0,0.05,61.900000000000006,0)" xlink:href="#aW"/></g><path fill="#666" d="M135-194c53 0 70 44 70 98 0 56-19 98-73 100-31 1-45-17-59-34 3 33 2 69 2 105H25l-1-265h48c2 10 0 23 3 31 11-24 29-35 60-35zM114-30c33 0 39-31 40-66 0-38-9-64-40-64-56 0-55 130 0 130" id="aX"/><path fill="#666" d="M133-34C117-15 103 5 69 4 32 3 11-16 11-54c-1-60 55-63 116-61 1-26-3-47-28-47-18 1-26 9-28 27l-52-2c7-38 36-58 82-57s74 22 75 68l1 82c-1 14 12 18 25 15v27c-30 8-71 5-69-32zm-48 3c29 0 43-24 42-57-32 0-66-3-65 30 0 17 8 27 23 27" id="aY"/><path fill="#666" d="M135-150c-39-12-60 13-60 57V0H25l-1-190h47c2 13-1 29 3 40 6-28 27-53 61-41v41" id="aZ"/><g id="o"><use transform="matrix(0.05,0,0,0.05,0,0)" xlink:href="#aX"/><use transform="matrix(0.05,0,0,0.05,10.950000000000001,0)" xlink:href="#aY"/><use transform="matrix(0.05,0,0,0.05,20.950000000000003,0)" xlink:href="#aZ"/><use transform="matrix(0.05,0,0,0.05,27.950000000000003,0)" xlink:href="#aY"/></g><path fill="#666" d="M67-125c0 53 21 87 73 88 37 1 54-22 65-47l45 17C233-25 199 4 140 4 58 4 20-42 15-125 8-235 124-281 211-232c18 10 29 29 36 50l-46 12c-8-25-30-41-62-41-52 0-71 34-72 86" id="ba"/><path fill="#666" d="M25-224v-37h50v37H25zM25 0v-190h50V0H25" id="bb"/><path fill="#666" d="M220-157c-53 9-28 100-34 157h-49v-107c1-27-5-49-29-50C55-147 81-57 75 0H25l-1-190h47c2 12-1 28 3 38 10-53 101-56 108 0 13-22 24-43 59-42 82 1 51 116 57 194h-49v-107c-1-25-5-48-29-50" id="bc"/><path fill="#666" d="M4 7l51-268h42L46 7H4" id="bd"/><path fill="#666" d="M182-130c37 4 62 22 62 59C244 23 116-4 24 0v-248c84 5 203-23 205 63 0 31-19 50-47 55zM76-148c40-3 101 13 101-30 0-44-60-28-101-31v61zm0 110c48-3 116 14 116-37 0-48-69-32-116-35v72" id="be"/><path fill="#666" d="M144 0l-44-69L55 0H2l70-98-66-92h53l41 62 40-62h54l-67 91 71 99h-54" id="bf"/><path fill="#666" d="M110-194c64 0 96 36 96 99 0 64-35 99-97 99-61 0-95-36-95-99 0-62 34-99 96-99zm-1 164c35 0 45-28 45-65 0-40-10-65-43-65-34 0-45 26-45 65 0 36 10 65 43 65" id="bg"/><g id="p"><use transform="matrix(0.05,0,0,0.05,0,0)" xlink:href="#ba"/><use transform="matrix(0.05,0,0,0.05,12.950000000000001,0)" xlink:href="#bb"/><use transform="matrix(0.05,0,0,0.05,17.950000000000003,0)" xlink:href="#bc"/><use transform="matrix(0.05,0,0,0.05,33.95,0)" xlink:href="#aY"/><use transform="matrix(0.05,0,0,0.05,43.95,0)" xlink:href="#bd"/><use transform="matrix(0.05,0,0,0.05,48.95,0)" xlink:href="#be"/><use transform="matrix(0.05,0,0,0.05,61.900000000000006,0)" xlink:href="#aY"/><use transform="matrix(0.05,0,0,0.05,71.9,0)" xlink:href="#bb"/><use transform="matrix(0.05,0,0,0.05,76.9,0)" xlink:href="#bf"/><use transform="matrix(0.05,0,0,0.05,86.9,0)" xlink:href="#bg"/></g><g id="q"><use transform="matrix(0.05,0,0,0.05,0,0)" xlink:href="#aO"/><use transform="matrix(0.05,0,0,0.05,14.950000000000001,0)" xlink:href="#as"/><use transform="matrix(0.05,0,0,0.05,24.950000000000003,0)" xlink:href="#aG"/><use transform="matrix(0.05,0,0,0.05,33.95,0)" xlink:href="#aF"/></g><g id="r"><use transform="matrix(0.05,0,0,0.05,0,0)" xlink:href="#au"/><use transform="matrix(0.05,0,0,0.05,14.950000000000001,0)" xlink:href="#as"/><use transform="matrix(0.05,0,0,0.05,24.950000000000003,0)" xlink:href="#aM"/><use transform="matrix(0.05,0,0,0.05,29.950000000000003,0)" xlink:href="#as"/><use transform="matrix(0.05,0,0,0.05,39.95,0)" xlink:href="#ap"/></g><g id="s"><use transform="matrix(0.05,0,0,0.05,0,0)" xlink:href="#an"/><use transform="matrix(0.05,0,0,0.05,3.95,0)" xlink:href="#aH"/><use transform="matrix(0.05,0,0,0.05,13.949999999999998,0)" xlink:href="#aF"/><use transform="matrix(0.05,0,0,0.05,23.95,0)" xlink:href="#aL"/><use transform="matrix(0.05,0,0,0.05,28.950000000000003,0)" xlink:href="#ap"/><use transform="matrix(0.05,0,0,0.05,34.9,0)" xlink:href="#an"/><use transform="matrix(0.05,0,0,0.05,38.85,0)" xlink:href="#as"/><use transform="matrix(0.05,0,0,0.05,48.85,0)" xlink:href="#ap"/></g><path fill="#666" d="M30-248c87 1 191-15 191 75 0 78-77 80-158 76V0H30v-248zm33 125c57 0 124 11 124-50 0-59-68-47-124-48v98" id="bh"/><path fill="#666" d="M114-163C36-179 61-72 57 0H25l-1-190h30c1 12-1 29 2 39 6-27 23-49 58-41v29" id="bi"/><path fill="#666" d="M100-194c63 0 86 42 84 106H49c0 40 14 67 53 68 26 1 43-12 49-29l28 8c-11 28-37 45-77 45C44 4 14-33 15-96c1-61 26-98 85-98zm52 81c6-60-76-77-97-28-3 7-6 17-6 28h103" id="bj"/><path fill="#666" d="M135-143c-3-34-86-38-87 0 15 53 115 12 119 90S17 21 10-45l28-5c4 36 97 45 98 0-10-56-113-15-118-90-4-57 82-63 122-42 12 7 21 19 24 35" id="bk"/><path fill="#666" d="M24-231v-30h32v30H24zM24 0v-190h32V0H24" id="bl"/><path fill="#666" d="M100-194c62-1 85 37 85 99 1 63-27 99-86 99S16-35 15-95c0-66 28-99 85-99zM99-20c44 1 53-31 53-75 0-43-8-75-51-75s-53 32-53 75 10 74 51 75" id="bm"/><path fill="#666" d="M117-194c89-4 53 116 60 194h-32v-121c0-31-8-49-39-48C34-167 62-67 57 0H25l-1-190h30c1 10-1 24 2 32 11-22 29-35 61-36" id="bn"/><path fill="#666" d="M84 4C-5 8 30-112 23-190h32v120c0 31 7 50 39 49 72-2 45-101 50-169h31l1 190h-30c-1-10 1-25-2-33-11 22-28 36-60 37" id="bo"/><g id="t"><use transform="matrix(0.05,0,0,0.05,0,0)" xlink:href="#bh"/><use transform="matrix(0.05,0,0,0.05,12,0)" xlink:href="#bi"/><use transform="matrix(0.05,0,0,0.05,17.95,0)" xlink:href="#bj"/><use transform="matrix(0.05,0,0,0.05,27.950000000000003,0)" xlink:href="#bk"/><use transform="matrix(0.05,0,0,0.05,36.95,0)" xlink:href="#bk"/><use transform="matrix(0.05,0,0,0.05,45.95,0)" xlink:href="#bl"/><use transform="matrix(0.05,0,0,0.05,49.900000000000006,0)" xlink:href="#bm"/><use transform="matrix(0.05,0,0,0.05,59.900000000000006,0)" xlink:href="#bn"/><use transform="matrix(0.05,0,0,0.05,69.9,0)" xlink:href="#bm"/><use transform="matrix(0.05,0,0,0.05,79.9,0)" xlink:href="#bo"/></g><path fill="#666" d="M160-131c35 5 61 23 61 61C221 17 115-2 30 0v-248c76 3 177-17 177 60 0 33-19 50-47 57zm-97-11c50-1 110 9 110-42 0-47-63-36-110-37v79zm0 115c55-2 124 14 124-45 0-56-70-42-124-44v89" id="bp"/><path fill="#666" d="M59-47c-2 24 18 29 38 22v24C64 9 27 4 27-40v-127H5v-23h24l9-43h21v43h35v23H59v120" id="bq"/><path fill="#666" d="M141-36C126-15 110 5 73 4 37 3 15-17 15-53c-1-64 63-63 125-63 3-35-9-54-41-54-24 1-41 7-42 31l-33-3c5-37 33-52 76-52 45 0 72 20 72 64v82c-1 20 7 32 28 27v20c-31 9-61-2-59-35zM48-53c0 20 12 33 32 33 41-3 63-29 60-74-43 2-92-5-92 41zm117-205c-3 23-9 48-36 47-26-1-65-44-74 0H39c4-23 8-48 36-47s64 44 74 0h16" id="br"/><g id="u"><use transform="matrix(0.05,0,0,0.05,0,0)" xlink:href="#bp"/><use transform="matrix(0.05,0,0,0.05,12,0)" xlink:href="#bm"/><use transform="matrix(0.05,0,0,0.05,22,0)" xlink:href="#bq"/><use transform="matrix(0.05,0,0,0.05,27,0)" xlink:href="#br"/><use transform="matrix(0.05,0,0,0.05,37,0)" xlink:href="#bm"/></g><use transform="matrix(0.05,0,0,0.05,0,0)" xlink:href="#bp" id="v"/><path fill="#666" d="M103-251c84 0 111 97 45 133-19 10-37 24-39 52H78c0-63 77-55 77-114 0-30-21-42-52-43-32 0-53 17-56 46l-32-2c7-45 34-72 88-72zM77 0v-35h34V0H77" id="bs"/><use transform="matrix(0.05,0,0,0.05,0,0)" xlink:href="#bs" id="w"/><path fill="#666" d="M169-182c-1-43-94-46-97-3 18 66 151 10 154 114 3 95-165 93-204 36-6-8-10-19-12-30l50-8c3 46 112 56 116 5-17-69-150-10-154-114-4-87 153-88 188-35 5 8 8 18 10 28" id="bt"/><g id="x"><use transform="matrix(0.05,0,0,0.05,0,0)" xlink:href="#bt"/><use transform="matrix(0.05,0,0,0.05,12,0)" xlink:href="#bb"/><use transform="matrix(0.05,0,0,0.05,17,0)" xlink:href="#bc"/></g><path fill="#666" d="M175 0L67-191c6 58 2 128 3 191H24v-248h59L193-55c-6-58-2-129-3-193h46V0h-61" id="bu"/><path fill="#666" d="M132-34C116-15 102 5 68 4 31 3 10-16 10-54c-1-60 55-63 116-61 1-26-3-47-28-47-18 1-26 9-28 27l-52-2c7-38 36-58 82-57s74 22 75 68l1 82c-1 14 12 18 25 15v27c-30 8-71 5-69-32zm-48 3c29 0 43-24 42-57-32 0-66-3-65 30 0 17 8 27 23 27zm82-228c-2 27-9 52-40 51-27-1-66-46-73 0H29c0-29 9-51 39-51 28 0 66 44 74 0h24" id="bv"/><g id="y"><use transform="matrix(0.05,0,0,0.05,0,0)" xlink:href="#bu"/><use transform="matrix(0.05,0,0,0.05,12.950000000000001,0)" xlink:href="#bv"/><use transform="matrix(0.05,0,0,0.05,22.950000000000003,0)" xlink:href="#bg"/></g><path fill="#fff" d="M84 4C-5 8 30-112 23-190h32v120c0 31 7 50 39 49 72-2 45-101 50-169h31l1 190h-30c-1-10 1-25-2-33-11 22-28 36-60 37" id="bw"/><path fill="#fff" d="M115-194c55 1 70 41 70 98S169 2 115 4C84 4 66-9 55-30l1 105H24l-1-265h31l2 30c10-21 28-34 59-34zm-8 174c40 0 45-34 45-75s-6-73-45-74c-42 0-51 32-51 76 0 43 10 73 51 73" id="bx"/><g id="z"><use transform="matrix(0.05,0,0,0.05,0,0)" xlink:href="#aE"/><use transform="matrix(0.05,0,0,0.05,9,0)" xlink:href="#bw"/><use transform="matrix(0.05,0,0,0.05,19,0)" xlink:href="#bx"/><use transform="matrix(0.05,0,0,0.05,29,0)" xlink:href="#aF"/><use transform="matrix(0.05,0,0,0.05,39,0)" xlink:href="#ap"/><use transform="matrix(0.05,0,0,0.05,44.95,0)" xlink:href="#an"/><use transform="matrix(0.05,0,0,0.05,48.900000000000006,0)" xlink:href="#as"/><use transform="matrix(0.05,0,0,0.05,58.900000000000006,0)" xlink:href="#ap"/></g><path fill="#fff" d="M205 0l-28-72H64L36 0H1l101-248h38L239 0h-34zm-38-99l-47-123c-12 45-31 82-46 123h93" id="by"/><path fill="#fff" d="M0 4l72-265h28L28 4H0" id="bz"/><path fill="#fff" d="M233-177c-1 41-23 64-60 70L243 0h-38l-65-103H63V0H30v-248c88 3 205-21 203 71zM63-129c60-2 137 13 137-47 0-61-80-42-137-45v92" id="bA"/><g id="A"><use transform="matrix(0.05,0,0,0.05,0,0)" xlink:href="#by"/><use transform="matrix(0.05,0,0,0.05,12,0)" xlink:href="#aN"/><use transform="matrix(0.05,0,0,0.05,22,0)" xlink:href="#an"/><use transform="matrix(0.05,0,0,0.05,25.950000000000003,0)" xlink:href="#at"/><use transform="matrix(0.05,0,0,0.05,34.95,0)" xlink:href="#an"/><use transform="matrix(0.05,0,0,0.05,38.900000000000006,0)" xlink:href="#as"/><use transform="matrix(0.05,0,0,0.05,48.900000000000006,0)" xlink:href="#aH"/><use transform="matrix(0.05,0,0,0.05,58.900000000000006,0)" xlink:href="#al"/><use transform="matrix(0.05,0,0,0.05,68.9,0)" xlink:href="#bz"/><use transform="matrix(0.05,0,0,0.05,73.9,0)" xlink:href="#bA"/><use transform="matrix(0.05,0,0,0.05,86.85000000000001,0)" xlink:href="#aF"/><use transform="matrix(0.05,0,0,0.05,96.85000000000001,0)" xlink:href="#au"/><use transform="matrix(0.05,0,0,0.05,111.80000000000001,0)" xlink:href="#as"/><use transform="matrix(0.05,0,0,0.05,121.80000000000001,0)" xlink:href="#aG"/><use transform="matrix(0.05,0,0,0.05,130.8,0)" xlink:href="#aF"/></g><path fill="#fff" d="M133-28C103 26-5 8 13-77c13-62 24-115 90-117 29-1 46 15 56 35l19-102h32L160 0h-30zM45-64c-2 27 10 43 35 43 54-1 69-50 69-103 0-29-15-46-42-46-53-1-58 58-62 106" id="bB"/><path fill="#fff" d="M111-194c62-3 86 47 72 106H45c-7 38 6 69 45 68 27-1 43-14 53-32l24 11C152-15 129 4 87 4 38 3 12-23 12-71c0-70 32-119 99-123zm44 81c14-66-71-72-95-28-4 8-8 17-11 28h106" id="bC"/><path fill="#fff" d="M6 0l50-261h32L37 0H6" id="bD"/><path fill="#fff" d="M165-48c-4 18 1 34 23 27l-3 20c-29 8-62 0-52-35h-2C116-14 99 4 63 4 30 4 8-16 8-49c0-68 71-67 138-67 10-26 0-56-31-54-26 1-42 9-47 31l-32-5c8-67 160-71 144 15-5 28-9 54-15 81zM42-50c3 52 80 24 89-6 7-12 7-24 11-38-47 1-103-4-100 44" id="bE"/><g id="B"><use transform="matrix(0.05,0,0,0.05,0,0)" xlink:href="#bB"/><use transform="matrix(0.05,0,0,0.05,10,0)" xlink:href="#bC"/><use transform="matrix(0.05,0,0,0.05,20,0)" xlink:href="#bD"/><use transform="matrix(0.05,0,0,0.05,23.95,0)" xlink:href="#bE"/><use transform="matrix(0.05,0,0,0.05,33.95,0)" xlink:href="#ax"/></g><g id="C"><use transform="matrix(0.05,0,0,0.05,0,0)" xlink:href="#aF"/><use transform="matrix(0.05,0,0,0.05,10,0)" xlink:href="#aH"/><use transform="matrix(0.05,0,0,0.05,20,0)" xlink:href="#aM"/><use transform="matrix(0.05,0,0,0.05,25,0)" xlink:href="#ap"/><use transform="matrix(0.05,0,0,0.05,30.950000000000003,0)" xlink:href="#aF"/></g><g id="D"><use transform="matrix(0.05,0,0,0.05,0,0)" xlink:href="#bx"/><use transform="matrix(0.05,0,0,0.05,10,0)" xlink:href="#al"/><use transform="matrix(0.05,0,0,0.05,20,0)" xlink:href="#aE"/><use transform="matrix(0.05,0,0,0.05,29,0)" xlink:href="#aE"/><use transform="matrix(0.05,0,0,0.05,38,0)" xlink:href="#as"/><use transform="matrix(0.05,0,0,0.05,48,0)" xlink:href="#aE"/></g><g id="E"><use transform="matrix(0.05,0,0,0.05,0,0)" xlink:href="#aN"/><use transform="matrix(0.05,0,0,0.05,10,0)" xlink:href="#as"/></g><path fill="#fff" d="M87 75C49 33 22-17 22-94c0-76 28-126 65-167h31c-38 41-64 92-64 168S80 34 118 75H87" id="bF"/><path fill="#fff" d="M24-231v-30h32v30H24zM-9 49c24 4 33-6 33-30v-209h32V24c2 40-23 58-65 49V49" id="bG"/><g id="F"><use transform="matrix(0.05,0,0,0.05,0,0)" xlink:href="#bF"/><use transform="matrix(0.05,0,0,0.05,5.95,0)" xlink:href="#by"/><use transform="matrix(0.05,0,0,0.05,17.95,0)" xlink:href="#bG"/><use transform="matrix(0.05,0,0,0.05,21.9,0)" xlink:href="#bw"/><use transform="matrix(0.05,0,0,0.05,31.899999999999995,0)" xlink:href="#aE"/><use transform="matrix(0.05,0,0,0.05,40.9,0)" xlink:href="#aM"/><use transform="matrix(0.05,0,0,0.05,45.9,0)" xlink:href="#aF"/></g><path fill="#fff" d="M63-220v92h138v28H63V0H30v-248h175v28H63" id="bH"/><path fill="#fff" d="M33-261c38 41 65 92 65 168S71 34 33 75H2C39 34 66-17 66-93S39-220 2-261h31" id="bI"/><g id="G"><use transform="matrix(0.05,0,0,0.05,0,0)" xlink:href="#bH"/><use transform="matrix(0.05,0,0,0.05,10.950000000000001,0)" xlink:href="#an"/><use transform="matrix(0.05,0,0,0.05,14.9,0)" xlink:href="#aH"/><use transform="matrix(0.05,0,0,0.05,24.900000000000002,0)" xlink:href="#as"/><use transform="matrix(0.05,0,0,0.05,34.900000000000006,0)" xlink:href="#bI"/></g><path fill="#666" d="M115-3C79 11 28 4 28-45v-112H4v-33h27l15-45h31v45h36v33H77v99c-1 23 16 31 38 25v30" id="bJ"/><g id="H"><use transform="matrix(0.05,0,0,0.05,0,0)" xlink:href="#be"/><use transform="matrix(0.05,0,0,0.05,12.950000000000001,0)" xlink:href="#bg"/><use transform="matrix(0.05,0,0,0.05,23.900000000000002,0)" xlink:href="#bJ"/><use transform="matrix(0.05,0,0,0.05,29.85,0)" xlink:href="#bv"/><use transform="matrix(0.05,0,0,0.05,39.85,0)" xlink:href="#bg"/></g><path fill="#666" d="M190-63c-7 42-38 67-86 67-59 0-84-38-90-98-12-110 154-137 174-36l-49 2c-2-19-15-32-35-32-30 0-35 28-38 64-6 74 65 87 74 30" id="bK"/><path fill="#666" d="M185-48c-13 30-37 53-82 52C43 2 14-33 14-96s30-98 90-98c62 0 83 45 84 108H66c0 31 8 55 39 56 18 0 30-7 34-22zm-45-69c5-46-57-63-70-21-2 6-4 13-4 21h74" id="bL"/><path fill="#666" d="M135-194c87-1 58 113 63 194h-50c-7-57 23-157-34-157-59 0-34 97-39 157H25l-1-190h47c2 12-1 28 3 38 12-26 28-41 61-42" id="bM"/><path fill="#666" d="M25 0v-261h50V0H25" id="bN"/><g id="I"><use transform="matrix(0.05,0,0,0.05,0,0)" xlink:href="#bK"/><use transform="matrix(0.05,0,0,0.05,10,0)" xlink:href="#bL"/><use transform="matrix(0.05,0,0,0.05,20,0)" xlink:href="#bM"/><use transform="matrix(0.05,0,0,0.05,30.950000000000003,0)" xlink:href="#bJ"/><use transform="matrix(0.05,0,0,0.05,36.900000000000006,0)" xlink:href="#aZ"/><use transform="matrix(0.05,0,0,0.05,43.900000000000006,0)" xlink:href="#aY"/><use transform="matrix(0.05,0,0,0.05,53.900000000000006,0)" xlink:href="#bN"/></g><g id="J"><use transform="matrix(0.05,0,0,0.05,0,0)" xlink:href="#aP"/><use transform="matrix(0.05,0,0,0.05,10,0)" xlink:href="#aQ"/><use transform="matrix(0.05,0,0,0.05,20.950000000000003,0)" xlink:href="#aR"/><use transform="matrix(0.05,0,0,0.05,30.950000000000003,0)" xlink:href="#aS"/><use transform="matrix(0.05,0,0,0.05,40.95,0)" xlink:href="#aT"/><use transform="matrix(0.05,0,0,0.05,46.900000000000006,0)" xlink:href="#aU"/><use transform="matrix(0.05,0,0,0.05,51.900000000000006,0)" xlink:href="#aV"/><use transform="matrix(0.05,0,0,0.05,61.900000000000006,0)" xlink:href="#aW"/></g><path fill="#666" d="M24 0v-248h195v40H76v63h132v40H76v65h150V0H24" id="bO"/><path fill="#666" d="M137-138c1-29-70-34-71-4 15 46 118 7 119 86 1 83-164 76-172 9l43-7c4 19 20 25 44 25 33 8 57-30 24-41C81-84 22-81 20-136c-2-80 154-74 161-7" id="bP"/><path fill="#666" d="M84 4C32 4 15-41 15-95c0-55 18-99 73-99 29 0 47 12 58 34l2-30h48l-1 265h-49V-32C136-9 114 4 84 4zm21-34c32 0 41-29 41-66 0-36-9-64-40-64-33 0-39 30-40 65 0 43 13 65 39 65" id="bQ"/><path fill="#666" d="M85 4C-2 5 27-109 22-190h50c7 57-23 150 33 157 60-5 35-97 40-157h50l1 190h-47c-2-12 1-28-3-38-12 25-28 42-61 42" id="bR"/><path fill="#666" d="M88-194c31-1 46 15 58 34l-1-101h50l1 261h-48c-2-10 0-23-3-31C134-8 116 4 84 4 32 4 16-41 15-95c0-56 19-97 73-99zm17 164c33 0 40-30 41-66 1-37-9-64-41-64s-38 30-39 65c0 43 13 65 39 65" id="bS"/><path fill="#666" d="M24-248c120-7 223 5 221 122C244-46 201 0 124 0H24v-248zM76-40c74 7 117-18 117-86 0-67-45-88-117-82v168" id="bT"/><g id="K"><use transform="matrix(0.05,0,0,0.05,0,0)" xlink:href="#bO"/><use transform="matrix(0.05,0,0,0.05,12,0)" xlink:href="#bP"/><use transform="matrix(0.05,0,0,0.05,22,0)" xlink:href="#bQ"/><use transform="matrix(0.05,0,0,0.05,32.95,0)" xlink:href="#bR"/><use transform="matrix(0.05,0,0,0.05,43.900000000000006,0)" xlink:href="#bL"/><use transform="matrix(0.05,0,0,0.05,53.900000000000006,0)" xlink:href="#aZ"/><use transform="matrix(0.05,0,0,0.05,60.900000000000006,0)" xlink:href="#bS"/><use transform="matrix(0.05,0,0,0.05,71.85000000000001,0)" xlink:href="#aY"/><use transform="matrix(0.05,0,0,0.05,81.85000000000001,0)" xlink:href="#bd"/><use transform="matrix(0.05,0,0,0.05,86.85000000000001,0)" xlink:href="#bT"/><use transform="matrix(0.05,0,0,0.05,99.80000000000001,0)" xlink:href="#bb"/><use transform="matrix(0.05,0,0,0.05,104.80000000000001,0)" xlink:href="#aZ"/><use transform="matrix(0.05,0,0,0.05,111.80000000000001,0)" xlink:href="#bL"/><use transform="matrix(0.05,0,0,0.05,121.80000000000001,0)" xlink:href="#bb"/><use transform="matrix(0.05,0,0,0.05,126.80000000000001,0)" xlink:href="#bJ"/><use transform="matrix(0.05,0,0,0.05,132.75,0)" xlink:href="#aY"/></g><path fill="#fff" d="M141-36C126-15 110 5 73 4 37 3 15-17 15-53c-1-64 63-63 125-63 3-35-9-54-41-54-24 1-41 7-42 31l-33-3c5-37 33-52 76-52 45 0 72 20 72 64v82c-1 20 7 32 28 27v20c-31 9-61-2-59-35zM48-53c0 20 12 33 32 33 41-3 63-29 60-74-43 2-92-5-92 41zm25-158c8-23 27-35 38-54h36v5l-58 49H73" id="bU"/><g id="L"><use transform="matrix(0.05,0,0,0.05,0,0)" xlink:href="#ak"/><use transform="matrix(0.05,0,0,0.05,12.950000000000001,0)" xlink:href="#bU"/><use transform="matrix(0.05,0,0,0.05,22.950000000000003,0)" xlink:href="#am"/><use transform="matrix(0.05,0,0,0.05,26.900000000000002,0)" xlink:href="#at"/><use transform="matrix(0.05,0,0,0.05,35.900000000000006,0)" xlink:href="#bw"/><use transform="matrix(0.05,0,0,0.05,45.900000000000006,0)" xlink:href="#am"/><use transform="matrix(0.05,0,0,0.05,49.85000000000001,0)" xlink:href="#as"/></g><g id="M"><use transform="matrix(0.05,0,0,0.05,0,0)" xlink:href="#aN"/><use transform="matrix(0.05,0,0,0.05,10,0)" xlink:href="#as"/></g><path fill="#fff" d="M85 4C-4 8 31-112 24-190h32v120c0 31 7 50 39 49 72-2 45-101 50-169h31l1 190h-30c-1-10 1-25-2-33-11 22-28 36-60 37zM73-211c8-23 27-35 38-54h36v5l-58 49H73" id="bV"/><g id="N"><use transform="matrix(0.05,0,0,0.05,0,0)" xlink:href="#aH"/><use transform="matrix(0.05,0,0,0.05,10,0)" xlink:href="#bV"/><use transform="matrix(0.05,0,0,0.05,20,0)" xlink:href="#au"/><use transform="matrix(0.05,0,0,0.05,34.95,0)" xlink:href="#aF"/><use transform="matrix(0.05,0,0,0.05,44.95,0)" xlink:href="#ap"/><use transform="matrix(0.05,0,0,0.05,50.900000000000006,0)" xlink:href="#as"/></g><g id="O"><use transform="matrix(0.05,0,0,0.05,0,0)" xlink:href="#aN"/><use transform="matrix(0.05,0,0,0.05,10,0)" xlink:href="#aF"/></g><g id="P"><use transform="matrix(0.05,0,0,0.05,0,0)" xlink:href="#bx"/><use transform="matrix(0.05,0,0,0.05,10,0)" xlink:href="#al"/><use transform="matrix(0.05,0,0,0.05,20,0)" xlink:href="#aE"/><use transform="matrix(0.05,0,0,0.05,29,0)" xlink:href="#aE"/><use transform="matrix(0.05,0,0,0.05,38,0)" xlink:href="#as"/><use transform="matrix(0.05,0,0,0.05,48,0)" xlink:href="#aE"/></g><g id="Q"><use transform="matrix(0.05,0,0,0.05,0,0)" xlink:href="#aH"/><use transform="matrix(0.05,0,0,0.05,10,0)" xlink:href="#aF"/><use transform="matrix(0.05,0,0,0.05,20,0)" xlink:href="#at"/><use transform="matrix(0.05,0,0,0.05,29,0)" xlink:href="#aF"/><use transform="matrix(0.05,0,0,0.05,39,0)" xlink:href="#aE"/><use transform="matrix(0.05,0,0,0.05,48,0)" xlink:href="#aE"/><use transform="matrix(0.05,0,0,0.05,57,0)" xlink:href="#bU"/><use transform="matrix(0.05,0,0,0.05,67,0)" xlink:href="#ap"/><use transform="matrix(0.05,0,0,0.05,72.95,0)" xlink:href="#an"/><use transform="matrix(0.05,0,0,0.05,76.9,0)" xlink:href="#as"/><use transform="matrix(0.05,0,0,0.05,86.9,0)" xlink:href="#aE"/></g><g id="R"><use transform="matrix(0.05,0,0,0.05,0,0)" xlink:href="#aI"/><use transform="matrix(0.05,0,0,0.05,14,0)" xlink:href="#aJ"/><use transform="matrix(0.05,0,0,0.05,24,0)" xlink:href="#aD"/><use transform="matrix(0.05,0,0,0.05,36,0)" xlink:href="#aK"/></g><g id="S"><use transform="matrix(0.05,0,0,0.05,0,0)" xlink:href="#at"/><use transform="matrix(0.05,0,0,0.05,9,0)" xlink:href="#as"/><use transform="matrix(0.05,0,0,0.05,19,0)" xlink:href="#as"/><use transform="matrix(0.05,0,0,0.05,29,0)" xlink:href="#ap"/><use transform="matrix(0.05,0,0,0.05,34.95,0)" xlink:href="#aH"/><use transform="matrix(0.05,0,0,0.05,44.95,0)" xlink:href="#aN"/><use transform="matrix(0.05,0,0,0.05,54.95,0)" xlink:href="#aF"/><use transform="matrix(0.05,0,0,0.05,64.95,0)" xlink:href="#aH"/><use transform="matrix(0.05,0,0,0.05,74.95,0)" xlink:href="#al"/><use transform="matrix(0.05,0,0,0.05,84.95,0)" xlink:href="#aN"/><use transform="matrix(0.05,0,0,0.05,94.95,0)" xlink:href="#al"/><use transform="matrix(0.05,0,0,0.05,104.95,0)" xlink:href="#aE"/></g><g id="T"><use transform="matrix(0.05,0,0,0.05,0,0)" xlink:href="#ap"/><use transform="matrix(0.05,0,0,0.05,5.95,0)" xlink:href="#aF"/><use transform="matrix(0.05,0,0,0.05,15.949999999999998,0)" xlink:href="#at"/><use transform="matrix(0.05,0,0,0.05,24.95,0)" xlink:href="#aF"/><use transform="matrix(0.05,0,0,0.05,34.95,0)" xlink:href="#ao"/><use transform="matrix(0.05,0,0,0.05,44.95,0)" xlink:href="#an"/><use transform="matrix(0.05,0,0,0.05,48.900000000000006,0)" xlink:href="#aN"/><use transform="matrix(0.05,0,0,0.05,58.900000000000006,0)" xlink:href="#al"/><use transform="matrix(0.05,0,0,0.05,68.9,0)" xlink:href="#aE"/></g><path fill="#666" d="M205 0l-28-72H64L36 0H1l101-248h38L239 0h-34zm-38-99l-47-123c-12 45-31 82-46 123h93" id="bW"/><use transform="matrix(0.05,0,0,0.05,0,0)" xlink:href="#bW" id="U"/><path fill="#fff" d="M177-190C167-65 218 103 67 71c-23-6-38-20-44-43l32-5c15 47 100 32 89-28v-30C133-14 115 1 83 1 29 1 15-40 15-95c0-56 16-97 71-98 29-1 48 16 59 35 1-10 0-23 2-32h30zM94-22c36 0 50-32 50-73 0-42-14-75-50-75-39 0-46 34-46 75s6 73 46 73" id="bX"/><g id="V"><use transform="matrix(0.05,0,0,0.05,0,0)" xlink:href="#aJ"/><use transform="matrix(0.05,0,0,0.05,10,0)" xlink:href="#an"/><use transform="matrix(0.05,0,0,0.05,13.949999999999998,0)" xlink:href="#bX"/><use transform="matrix(0.05,0,0,0.05,23.95,0)" xlink:href="#al"/><use transform="matrix(0.05,0,0,0.05,33.95,0)" xlink:href="#bz"/><use transform="matrix(0.05,0,0,0.05,38.95,0)" xlink:href="#aK"/><use transform="matrix(0.05,0,0,0.05,51.900000000000006,0)" xlink:href="#aF"/><use transform="matrix(0.05,0,0,0.05,61.900000000000006,0)" xlink:href="#aE"/><use transform="matrix(0.05,0,0,0.05,70.9,0)" xlink:href="#am"/><use transform="matrix(0.05,0,0,0.05,74.85000000000001,0)" xlink:href="#an"/><use transform="matrix(0.05,0,0,0.05,78.80000000000001,0)" xlink:href="#bX"/><use transform="matrix(0.05,0,0,0.05,88.80000000000001,0)" xlink:href="#al"/></g><g id="W"><use transform="matrix(0.05,0,0,0.05,0,0)" xlink:href="#am"/><use transform="matrix(0.05,0,0,0.05,3.95,0)" xlink:href="#al"/><use transform="matrix(0.05,0,0,0.05,13.949999999999998,0)" xlink:href="#aE"/><use transform="matrix(0.05,0,0,0.05,22.95,0)" xlink:href="#aF"/><use transform="matrix(0.05,0,0,0.05,32.95,0)" xlink:href="#ap"/></g><path fill="#666" d="M30 0v-248h187v28H63v79h144v27H63v87h162V0H30" id="bY"/><path fill="#666" d="M108 0H70L1-190h34L89-25l56-165h34" id="bZ"/><g id="X"><use transform="matrix(0.05,0,0,0.05,0,0)" xlink:href="#bY"/><use transform="matrix(0.05,0,0,0.05,12,0)" xlink:href="#bn"/><use transform="matrix(0.05,0,0,0.05,22,0)" xlink:href="#bZ"/><use transform="matrix(0.05,0,0,0.05,31,0)" xlink:href="#bl"/><use transform="matrix(0.05,0,0,0.05,34.95,0)" xlink:href="#bm"/><use transform="matrix(0.05,0,0,0.05,44.95,0)" xlink:href="#bo"/></g><path fill="#666" d="M212-179c-10-28-35-45-73-45-59 0-87 40-87 99 0 60 29 101 89 101 43 0 62-24 78-52l27 14C228-24 195 4 139 4 59 4 22-46 18-125c-6-104 99-153 187-111 19 9 31 26 39 46" id="ca"/><path fill="#666" d="M85-194c31 0 48 13 60 33l-1-100h32l1 261h-30c-2-10 0-23-3-31C134-8 116 4 85 4 32 4 16-35 15-94c0-66 23-100 70-100zm9 24c-40 0-46 34-46 75 0 40 6 74 45 74 42 0 51-32 51-76 0-42-9-74-50-73" id="cb"/><path fill="#666" d="M141-36C126-15 110 5 73 4 37 3 15-17 15-53c-1-64 63-63 125-63 3-35-9-54-41-54-24 1-41 7-42 31l-33-3c5-37 33-52 76-52 45 0 72 20 72 64v82c-1 20 7 32 28 27v20c-31 9-61-2-59-35zM48-53c0 20 12 33 32 33 41-3 63-29 60-74-43 2-92-5-92 41" id="cc"/><g id="Y"><use transform="matrix(0.05,0,0,0.05,0,0)" xlink:href="#ca"/><use transform="matrix(0.05,0,0,0.05,12.950000000000001,0)" xlink:href="#bm"/><use transform="matrix(0.05,0,0,0.05,22.950000000000003,0)" xlink:href="#bm"/><use transform="matrix(0.05,0,0,0.05,32.95,0)" xlink:href="#bi"/><use transform="matrix(0.05,0,0,0.05,38.900000000000006,0)" xlink:href="#cb"/><use transform="matrix(0.05,0,0,0.05,48.900000000000006,0)" xlink:href="#bj"/><use transform="matrix(0.05,0,0,0.05,58.900000000000006,0)" xlink:href="#bn"/><use transform="matrix(0.05,0,0,0.05,68.9,0)" xlink:href="#cc"/><use transform="matrix(0.05,0,0,0.05,78.9,0)" xlink:href="#cb"/><use transform="matrix(0.05,0,0,0.05,88.9,0)" xlink:href="#cc"/><use transform="matrix(0.05,0,0,0.05,98.9,0)" xlink:href="#bk"/></g><g id="Z"><use transform="matrix(0.05,0,0,0.05,0,0)" xlink:href="#bZ"/><use transform="matrix(0.05,0,0,0.05,9,0)" xlink:href="#bl"/><use transform="matrix(0.05,0,0,0.05,12.949999999999998,0)" xlink:href="#cc"/></g><path fill="#666" d="M24 0v-261h32V0H24" id="cd"/><path fill="#666" d="M106-169C34-169 62-67 57 0H25v-261h32l-1 103c12-21 28-36 61-36 89 0 53 116 60 194h-32v-121c2-32-8-49-39-48" id="ce"/><g id="aa"><use transform="matrix(0.05,0,0,0.05,0,0)" xlink:href="#bp"/><use transform="matrix(0.05,0,0,0.05,12,0)" xlink:href="#cd"/><use transform="matrix(0.05,0,0,0.05,15.949999999999998,0)" xlink:href="#bo"/><use transform="matrix(0.05,0,0,0.05,25.950000000000003,0)" xlink:href="#bj"/><use transform="matrix(0.05,0,0,0.05,35.95,0)" xlink:href="#bq"/><use transform="matrix(0.05,0,0,0.05,40.95,0)" xlink:href="#bm"/><use transform="matrix(0.05,0,0,0.05,50.95,0)" xlink:href="#bm"/><use transform="matrix(0.05,0,0,0.05,60.95,0)" xlink:href="#bq"/><use transform="matrix(0.05,0,0,0.05,65.95,0)" xlink:href="#ce"/></g><g id="ab"><use transform="matrix(0.05,0,0,0.05,0,0)" xlink:href="#bY"/><use transform="matrix(0.05,0,0,0.05,12,0)" xlink:href="#bk"/><use transform="matrix(0.05,0,0,0.05,21,0)" xlink:href="#bq"/><use transform="matrix(0.05,0,0,0.05,26,0)" xlink:href="#br"/><use transform="matrix(0.05,0,0,0.05,36,0)" xlink:href="#bm"/></g><g id="ac"><use transform="matrix(0.05,0,0,0.05,0,0)" xlink:href="#bn"/><use transform="matrix(0.05,0,0,0.05,10,0)" xlink:href="#bm"/></g><path fill="#666" d="M101-234c-31-9-42 10-38 44h38v23H63V0H32v-167H5v-23h27c-7-52 17-82 69-68v24" id="cf"/><path fill="#666" d="M210-169c-67 3-38 105-44 169h-31v-121c0-29-5-50-35-48C34-165 62-65 56 0H25l-1-190h30c1 10-1 24 2 32 10-44 99-50 107 0 11-21 27-35 58-36 85-2 47 119 55 194h-31v-121c0-29-5-49-35-48" id="cg"/><g id="ad"><use transform="matrix(0.05,0,0,0.05,0,0)" xlink:href="#cf"/><use transform="matrix(0.05,0,0,0.05,5,0)" xlink:href="#bm"/><use transform="matrix(0.05,0,0,0.05,15,0)" xlink:href="#bi"/><use transform="matrix(0.05,0,0,0.05,20.95,0)" xlink:href="#cg"/><use transform="matrix(0.05,0,0,0.05,35.9,0)" xlink:href="#cc"/><use transform="matrix(0.05,0,0,0.05,45.9,0)" xlink:href="#bq"/><use transform="matrix(0.05,0,0,0.05,50.9,0)" xlink:href="#bm"/></g><path fill="#666" d="M96-169c-40 0-48 33-48 73s9 75 48 75c24 0 41-14 43-38l32 2c-6 37-31 61-74 61-59 0-76-41-82-99-10-93 101-131 147-64 4 7 5 14 7 22l-32 3c-4-21-16-35-41-35" id="ch"/><g id="ae"><use transform="matrix(0.05,0,0,0.05,0,0)" xlink:href="#ch"/><use transform="matrix(0.05,0,0,0.05,9,0)" xlink:href="#bm"/><use transform="matrix(0.05,0,0,0.05,19,0)" xlink:href="#bi"/><use transform="matrix(0.05,0,0,0.05,24.95,0)" xlink:href="#bi"/><use transform="matrix(0.05,0,0,0.05,30.899999999999995,0)" xlink:href="#bj"/><use transform="matrix(0.05,0,0,0.05,40.9,0)" xlink:href="#bq"/><use transform="matrix(0.05,0,0,0.05,45.9,0)" xlink:href="#bm"/></g><use transform="matrix(0.05,0,0,0.05,0,0)" xlink:href="#bs" id="af"/></defs></g></svg>